# xmcd
#
# Track frame offsets: 
#        150
#        14591
#        27097
#        40860
#        56120
#        69985
#        83123
#        95536
#        109227
#        122865
#        135458
#        148909
#        160692
#        172102
#        186193
#        199876
#        212479
#        225453
#
# Disc length: 3181 seconds
#
# Revision: 0
# Processed by: cddbd v1.5.2PL0 Copyright (c) Steve Scherf et al.
# Submitted via: ExactAudioCopy v0.95a5
#
DISCID=fe0c6b12
DTITLE=Gillum (Jazz) - The Blues - Harmonica Chicago Blues 1934-1947
DYEAR=1998
DGENRE=Blues
TTITLE0=Tell Me Mama (1942 - Avec Big Bill Broonzy)
TTITLE1=Go Back To The Country (1945 - Avec Big Bill Broonzy) 
TTITLE2=Five Feet Four  (1945 - Avec Big Bill Broonzy) 
TTITLE3=Afraid To Trust Them  (1945 - Avec Big Bill Broonzy) 
TTITLE4=Reckless Rider Blues (1945 - Avec Sykes Roosevelt)
TTITLE5=All In All Blues (1946 - Avec Caston Leonard)
TTITLE6=Keep On Sailing (1946 - Avec Caston Leonard)
TTITLE7=Look On Yonder' s Wall  (1946 - Avec Caston Leonard) 
TTITLE8=I M Gonna Train My Baby (1946 - Avec Willie Lacey)
TTITLE9=Roll Dem Bones (1946 - Avec Willie Lacey)
TTITLE10=Can T Trust Myself (1946 - Avec Willie Lacey)
TTITLE11=The Blues What Am (1947 - Avec Willie Lacey)
TTITLE12=You Got To Run Me Down (1947 - Avec Willie Lacey)
TTITLE13=Hand Reader Blues (1947 - Avec Willie Lacey)
TTITLE14=Country Woman Blues (1947 - Avec Willie Lacey)
TTITLE15=Signifying Woman (1947 - Avec Willie Lacey)
TTITLE16=The Devil Blues (1947 - Avec Willie Lacey)
TTITLE17=Jazz Gillum's Blues (1946 - Avec Willie Lacey)
EXTD=Liste des intervenants sur ce CD - \nGillum William, Broonzy Big 
EXTD=Bill, Barnes George, Sykes Roosevelt, Caston Leonard, Lacey Willi
EXTD=e
EXTT0=
EXTT1=
EXTT2=
EXTT3=
EXTT4=
EXTT5=
EXTT6=
EXTT7=
EXTT8=
EXTT9=
EXTT10=
EXTT11=
EXTT12=
EXTT13=
EXTT14=
EXTT15=
EXTT16=
EXTT17=
PLAYORDER=
